Patient4_TMGait_0pt6_01_right_17_EMG.mot
version=1
nRows=16
nColumns=33
inDegrees=no
endheader
time	1LAddLong	2LGlutMax	3LGlutMed	4LIliopsoas	5LSemiMemb	6LBicFemLong	7LRecFem	8LVastMed	9LVastLat	10LGasMed	11LTibAnt	12lTibPost	13LPeroneusLong	14LSol	15LExtDigLong	16LFlexDigLong	17RAddLong	18RGlutMax	19RGlutMed	20RIliopsoas	21RSemiMemb	22RBicFemLong	23RRecFem	24RVastMed	25RVastLat	26RGasMed	27RTibAnt	28RTibPost	29RPeroneusLong	30RSol	31RExtDigLong	32RFlexDigLong
20.13	-0.000916	-0.086365	0.24292	-0.010071	-0.003967	0.024414	0.027313	-0.002899	0.13825	0.009155	0.22736	0.00412	-0.088959	-0.008392	-0.054016	0	0.09903	-0.1619	-0.094452	0.06958	0.031738	0.016022	0.17853	-0.19501	-0.037994	-0.019684	0.4631	-0.003204	-0.46066	-0.14954	0.002136	-0.010071
20.131	-0.001373	-0.08194	0.15335	-0.001068	-0.005951	0.011292	-0.006866	0.00946	0.12054	-0.047455	0.13077	0.010071	-0.048981	-0.030518	-0.21912	-0.001831	0.11414	-0.1181	-0.08194	0.096893	0.019073	-0.002899	0.24612	-0.12787	-0.023041	-0.007935	0.22842	-0.007782	-0.031433	-0.19913	0.00473	-0.005493
20.132	-0.018921	-0.11719	0.078583	0.014038	-0.009613	0.017853	0.061493	0.010223	0.085297	-0.10178	-0.034332	0.014496	0.044403	0.085449	-0.13748	-0.002747	0.070648	-0.11688	-0.22629	0.097656	-0.027924	0.023956	0.22629	-0.13611	-0.011444	-0.007935	-0.12878	-0.004883	0.49972	-0.089874	0.003967	-0.009155
20.133	0.001984	-0.13687	0.057831	0.025482	-0.007477	0.029755	0.15381	0.001831	0.073242	-0.062256	-0.27695	0.002289	0.11643	0.13306	0.17593	-0.019073	0.020142	-0.16586	-0.12253	0.11063	-0.018616	0.008545	0.11185	-0.1001	-0.001831	-0.013885	-0.42816	-0.00824	0.41763	0.058289	0.006714	-0.012512
20.134	-0.001068	-0.10574	0.052948	0.010529	-0.007172	0.022583	0.24612	0.004272	-0.01709	-0.030212	-0.15747	0.004272	-0.014191	0.13916	0.16556	-0.005341	0.018768	-0.15579	-0.19928	0.15182	-0.075378	0.000305	-0.001678	-0.084991	-0.011902	-0.005493	-0.58456	-0.007477	0.49454	0.19287	0.006866	-0.002899
20.135	-0.002747	-0.0914	0.12695	0.018921	-0.006256	-0.003357	0.20386	0.010681	-0.10788	0.002136	0.088043	-0.000916	-0.074463	0.13184	-0.1741	0.007172	0.053558	-0.13825	-0.19684	0.14694	-0.16647	0.006714	-0.098114	-0.057983	0.00885	-0.00061	-0.47913	-0.003052	0.63614	0.11627	0.00824	-0.000458
20.136	0.008087	-0.08667	0.16068	-0.020142	-0.005188	0.020905	0.11459	0.02182	-0.080872	-0.011444	0.298	0.007477	0.77499	0.097351	0.41687	0.000153	0.053558	-0.17197	-0.19196	0.097046	-0.18036	0.014954	-0.22705	-0.053406	0.03479	0.009308	-0.32577	-0.003662	0.16586	0.024872	0.00351	0.003815
20.137	0.00061	-0.066071	0.20355	-0.006256	0.000153	0.015259	0.086823	0.016174	-0.045624	-0.032501	0.26306	0.003052	0.89554	0.049591	0.48431	0.003204	0.042877	-0.15579	-0.19547	0.056152	-0.048218	-0.009766	-0.3035	-0.093689	0.032959	-0.009918	-0.33493	-0.001678	-0.28091	0.023193	0.003662	-0.00061
20.138	0.005646	-0.06546	0.042267	0.023346	-0.004578	0.018768	-0.037384	0.020599	-0.087738	-0.056152	-0.041962	-0.003204	0.27481	0.17899	0.59555	-0.005798	0.026245	-0.16373	-0.12253	-0.014648	0.13031	0.001373	-0.18341	-0.1059	-0.002594	-0.010223	-0.081787	-0.005493	-0.43167	0.14145	0.003967	0.001678
20.139	0.001984	-0.086517	-0.002289	0.005493	-0.002747	0.00946	-0.053558	0.01297	-0.061493	-0.070343	-0.16678	0.009003	0.089874	0.31082	-0.1651	-0.005646	-0.02182	-0.17303	-0.015411	-0.052948	0.087128	-0.029755	-0.23224	-0.057373	0.004272	-0.023193	0.17731	-0.001526	-0.57526	0.10788	0.002441	0.003662
20.14	-0.00473	-0.058289	0.024109	0.018158	-0.006104	0.009308	0.053864	0.009003	0.10803	-0.112	-0.28137	0.00824	0.3363	0.27374	-0.47257	0.004272	-0.041351	-0.1178	-0.008545	-0.094452	0.041046	-0.04837	-0.10483	-0.058289	0.005951	-0.016937	0.09491	-0.005798	-0.53329	-0.011444	0.00351	-0.003357
20.141	-0.003052	-0.056305	-0.016937	0.003052	-0.005188	0.014496	0.11276	0.005646	0.1503	-0.092773	-0.22873	0.006409	-0.15808	0.18738	-0.67398	-0.007629	-0.08667	-0.16205	-0.049744	-0.14877	0.032043	-0.010529	0.010223	-0.062408	0.006104	-0.01709	-0.065765	-0.002136	-0.34012	0.09964	0.003052	-0.001068
20.142	0.007477	-0.028839	0.070343	0.003357	-0.006714	0.015869	0.10956	0.011597	0.12817	-0.050812	-0.12421	0.003662	-0.37003	-0.015564	-0.90897	-0.010986	-0.092773	-0.13229	0.011902	-0.21133	0.006714	0.039825	0.10681	0.010986	0.027771	-0.011292	-0.092163	-0.004578	0.37903	0.076904	0.006714	-0.009766
20.143	0.001526	-0.001221	0.084381	-0.003357	-0.000305	0.025787	0.094604	0.009766	0.11932	0.000153	-0.079956	0	-0.44662	-0.22888	-0.89859	0.001984	-0.086975	-0.12085	0.007019	-0.23377	-0.14862	0.10284	0.2066	0.049744	0.018463	-0.021667	-0.027771	-0.001526	0.032349	0.030518	0.003357	-0.007324
20.144	0.003204	0.064545	0.13367	0.00412	0.014191	0.006256	0.094757	0.007935	0.12451	-0.007935	-0.087891	0.002441	-0.30456	-0.26977	-0.61111	-0.003815	-0.06073	-0.11566	-0.10071	-0.20874	-0.13458	0.054626	0.14557	0.000458	0.030518	-0.017395	0.036926	-0.000305	0.15762	0.048981	0.006256	-0.013885
20.145	0.007172	0.10086	0.09613	0	-0.003052	0.009766	0.1149	0.006866	0.10239	0.022278	-0.069733	0.005646	-0.22064	-0.21683	0.072021	-0.01297	-0.057678	-0.090637	-0.074615	-0.10483	-0.069275	0.034637	0.11368	-0.033417	0.014038	-0.018768	0.11719	-0.004883	0.15915	0.032654	0.003662	-0.011139
